<?xml version="1.0" encoding="UTF-8"?>
<!DOCTYPE svg PUBLIC "-//W3C//DTD SVG 1.1//EN" "http://www.w3.org/Graphics/SVG/1.1/DTD/svg11.dtd">
<!-- Creator: CorelDRAW -->
<svg xmlns="http://www.w3.org/2000/svg" xml:space="preserve" width="80mm" height="21mm" version="1.1" style="shape-rendering:geometricPrecision; text-rendering:geometricPrecision; image-rendering:optimizeQuality; fill-rule:evenodd; clip-rule:evenodd"
viewBox="0 0 8000 2100"
 xmlns:xlink="http://www.w3.org/1999/xlink"
 xmlns:xodm="http://www.corel.com/coreldraw/odm/2003">
 <defs>
  <style type="text/css">
   <![CDATA[
    .fil2 {fill:#0093DD}
    .fil0 {fill:#00A23D}
    .fil7 {fill:#00BBEC}
    .fil6 {fill:#DA3AA6}
    .fil3 {fill:#FF0093}
    .fil5 {fill:#FF0D11}
    .fil4 {fill:#FF5701}
    .fil1 {fill:#FFE300}
   ]]>
  </style>
 </defs>
 <g id="Camada_x0020_1">
  <metadata id="CorelCorpID_0Corel-Layer"/>
  <g id="_2572057061584">
   <g>
    <path class="fil0" d="M5766.9 1672.22c0,99.93 -4.35,166.35 43.25,222.13 50.98,59.74 85.82,78.92 193.04,78.92 32.2,-17.93 49.72,-17.55 82.31,-43.84 90.25,-72.82 74.78,-166.97 74.23,-283.07 -0.75,-158.67 0.39,-317.51 -0.04,-476.21 -28.02,20.35 -212.98,270.62 -246.05,314.12l-146.74 187.95z"/>
    <path class="fil0" d="M5974.93 487.3c78.07,0 116.99,6.34 182.95,-60.75 103.31,-105.06 66.25,-343.43 -165.12,-343.43 -132.1,0 -269.79,165.04 -144.47,334.67 23.8,32.22 74.12,69.51 126.64,69.51z"/>
    <path class="fil0" d="M5766.9 792.99c20.1,67.55 58.01,111.79 134.01,124.9 63.26,10.91 194,7.72 260.83,3.48 -6.58,-76.57 10.19,-166.04 -11.43,-235.08 -10.92,-34.86 -27.07,-56.77 -49.42,-75.35 -19.36,-16.09 -55.71,-39.23 -84.35,-43.01 -88.3,-11.62 -190.92,32.81 -230.01,117.33 -17.95,38.81 -19.63,53.27 -19.63,107.73z"/>
   </g>
   <g>
    <path class="fil1" d="M7288.53 861.77l41.61 0c131.11,0 231.81,95.37 231.81,225.86l-517.12 0c0,-116.07 106.44,-225.86 243.7,-225.86zm-624.11 362.57c0,223.49 42.14,391.85 156.97,538.47 242.98,310.27 841.04,267.52 1020.98,27.26 80.11,-106.96 51.06,-286.36 -113.99,-286.36 -72.76,0 -114.29,44.05 -160.14,71.67 -29.69,17.88 -42.03,27.46 -78.39,40.49 -104.74,37.51 -261.61,23.64 -353.57,-49.07 -41.97,-33.19 -85.51,-121.72 -85.51,-181.97l612.23 0c176.74,0 231.81,-61.67 231.81,-231.81 0,-96.18 -24.27,-182.39 -53.63,-249.51 -7.42,-16.97 -14.76,-32.76 -23.26,-48.07 -10.03,-18.08 -17.15,-30.47 -28.17,-49.1 -22.33,-37.71 -42.62,-56.47 -67.19,-87.35 -14.17,-17.79 -20.61,-17.8 -37.34,-33.99 -17.16,-16.61 -22.06,-21.05 -41.68,-35.59 -100.15,-74.26 -189.53,-95.28 -308.44,-104.4 -267.48,-20.5 -462.11,97.72 -559.75,290.98 -61.51,121.76 -110.93,242.22 -110.93,388.35z"/>
    <path class="fil1" d="M6161.74 921.37l3.4 -0.72 166.42 0.59c-21.22,40.05 -93.46,134.85 -123.7,179.4 -13.48,19.85 -25.04,46.28 -44.18,58.32l-3.99 11.19c0.43,158.7 -0.71,317.54 0.04,476.21 0.55,116.1 16.02,210.25 -74.23,283.07 -32.59,26.29 -50.11,25.91 -82.31,43.84 90.89,0 579.39,9.28 644.37,-10.91 87.52,-27.2 129.33,-112.9 110.53,-201.55 -21.89,-103.19 -88.8,-131.15 -195.09,-132.19l-165.73 -6.16c-17.5,-0.55 -34.76,0.49 -51.88,1.43 -15.55,0.86 -0.82,1.04 -17.22,0.32l-74.74 3.45c-18.93,2.13 -39.41,0.87 -58.57,0.87 10.47,-15.65 19.21,-29.7 31.35,-45.92l96.86 -134.95c64.89,-85.84 405.28,-562.31 453.23,-640.44 60.9,-99.2 43.54,-243.66 -165.23,-242.79l-594.53 3.5c28.64,3.78 64.99,26.92 84.35,43.01 22.35,18.58 38.5,40.49 49.42,75.35 21.62,69.04 4.85,158.51 11.43,235.08z"/>
   </g>
   <path class="fil2" d="M4595.95 629.96c-70.23,-104.88 -257.72,-114.36 -333.92,-12.96 -30.38,40.42 -40.55,104.1 -40.55,173.44l0 861.86c0,163.55 23.65,311.57 216.12,324.19 76.89,5.04 143.43,-40.33 170.45,-92.16 21.09,-40.47 23.93,-51.71 23.6,-113.11 -1,-185.44 -9.9,-524.14 6.27,-671.34 30.42,-276.95 379.68,-271.28 483.83,-193.3 38.93,29.14 57.36,70.75 67.05,123.16 28.63,155.03 -12.34,593.91 10.69,750.11 15.68,106.28 80.36,193.42 192.94,193.42 79.77,0 122.42,-0.34 179.93,-57.82 76.66,-76.62 57.56,-221.81 57.84,-334.49 0.04,-15.81 0.28,-31.65 -0.51,-47.42 -0.15,-2.9 -1.17,-18.67 -1.18,-18.97 -0.1,-10.56 0.87,-1.7 0.8,-17.68 -0.11,-26.81 -3.46,-17.23 -4.5,-41.29l1.23 -112.86c0.34,-10.69 0.19,-1 -0.84,-18.09 -5.65,-93.59 5.95,-213.07 -7.16,-308.08 -14.84,-107.47 -49.71,-182.32 -99.49,-257.14 -21.14,-31.77 -57.03,-67.3 -86.24,-92.09l-109.44 -68.87c-43.96,-18.78 -84.25,-31.31 -136.88,-41.43 -191.25,-36.79 -416.63,-18.84 -590.04,72.92z"/>
   <path class="fil3" d="M2836.56 1087.63l-534.95 0c41.52,-178.24 119.19,-214.67 274.18,-228.19 61.7,-5.38 130.36,16.73 178.57,54.81 40.77,32.21 80.65,103.8 82.2,173.38zm-927.25 118.88c0,230.15 26.81,410.46 194.66,578.05 163.53,163.26 319.38,194.66 560.22,194.66 156.12,0 271.62,-33.8 396.41,-108.82 59.18,-35.57 126.65,-103.44 126.65,-182.43 0,-99.97 -65.37,-184.26 -148.6,-184.26 -165.67,0 -170.76,120.66 -374.14,131.47 -19.15,1.02 -14.56,1.46 -27.47,0.93 -86.77,-3.57 -164.61,-7.9 -235.88,-71.47 -43,-38.36 -93.61,-101.86 -93.61,-179.81l630.05 0c177.98,0 249.65,-46.47 249.65,-237.76 0,-236.08 -128.38,-459.67 -350.36,-559.05 -205.52,-92.01 -587.02,-57.34 -748.43,143.81 -59.9,74.64 -86.06,108.14 -124.87,202.04 -28.35,68.58 -54.28,177.26 -54.28,272.64z"/>
   <path class="fil4" d="M714.59 861.77c119.91,0 203.22,21.48 257.71,134.58 13.38,27.77 21.65,52.52 21.65,91.28l-534.95 0c13.27,-56.95 35.41,-118.96 78.92,-158.83 36.54,-33.48 108.3,-67.03 176.67,-67.03zm523.06 -11.89c-7.29,-4.43 -6.97,8.35 -5.02,-11.89 -22.46,-39.5 -11.29,2.46 -44.46,-80.9l-15.9 -28.86c-45.23,-34.41 -63.4,-90.82 -202.01,-145.9 -122.68,-48.75 -326.52,-52.69 -457.08,-11.13 -140.42,44.71 -223.59,114.61 -308.14,226.8 -47.35,62.83 -87.46,164.9 -105.25,245.45 -71.99,325.97 12.5,697.53 319.49,862.56 264.52,142.2 821.02,88.3 873.07,-199.17 9.29,-51.32 -4.56,-97.09 -27.3,-135.43 -19.23,-32.4 -63.55,-65.6 -110.46,-67.93 -125.85,-6.25 -117.14,64.1 -244.66,112.35 -75.48,28.57 -224.67,29.62 -304.32,-15.03 -85.15,-47.72 -116.16,-110.81 -140.66,-215.97 125.44,0 610.93,9.97 694.47,-12.85 156.95,-42.88 143.22,-249.6 118.27,-383.83 -3.86,-20.78 -10.97,-47.76 -17.43,-71.72 -5.93,-21.96 -17.75,-45.69 -22.61,-66.55z"/>
   <path class="fil5" d="M1172.27 728.23l15.9 28.86c33.17,83.36 22,41.4 44.46,80.9l5.02 11.89c29.72,7.94 31.73,29.72 101.05,29.72 0,210.02 0,420.03 0,630.05 0,145.24 24.2,264.95 117.38,358.13 92.03,92.03 214.01,123.85 356.64,104.01 46.53,-6.47 78.1,-24.38 107.11,-53.38 92.81,-92.79 37.51,-273.31 -111.58,-277.98 -119.05,-3.72 -101.03,-60.47 -101.03,-219.94l-0.05 -475.56c-0.93,-100.03 0.42,-52.2 88.88,-59.68 47.46,-4.02 91.48,-9.33 124.3,-30.27 94.5,-60.33 105.02,-294.35 -132.64,-288.14 -15.31,0.4 -43.07,1.45 -66.09,0.25 -14.45,-0.75 -15.28,11.68 -14.5,-55.9 1.59,-138.41 21.54,-244.61 -104.9,-299.29 -57.03,-24.66 -181.39,-23.31 -237.35,57.87 -42.36,61.45 -26.17,196.69 -26.17,294.8 -101.18,2.26 -166.43,60.46 -166.43,163.66z"/>
   <path class="fil6" d="M3276.41 748.83l0 1022.35c0,262.21 323.5,254.34 376.97,97.61 24.29,-71.2 15.32,-198.96 15.32,-281.87 0,-174.11 -19.16,-409.79 45.36,-543.09 15.87,-32.79 38.89,-55.62 62.97,-79.68 29.51,-29.47 53.31,-36.35 97.32,-51.27 81.31,-27.57 174.33,-5.87 243.69,-53.51 67.82,-46.57 88.64,-129.27 57.88,-201.68 -43.36,-102.03 -134.62,-110.95 -233.8,-110.95 -79.84,0 -158.13,20.82 -219.78,59.58 -16.62,10.45 -35.68,29.44 -53.64,41.47 -86.73,-163.92 -392.29,-128.32 -392.29,101.04z"/>
   <path class="fil7" d="M5766.9 1672.22l146.74 -187.95c33.07,-43.5 218.03,-293.77 246.05,-314.12l3.99 -11.19 1.46 -238.31 -3.4 0.72c-66.83,4.24 -197.57,7.43 -260.83,-3.48 -76,-13.11 -113.91,-57.35 -134.01,-124.9l0 879.23z"/>
  </g>
 </g>
</svg>
